<svg width="226" height="387" viewBox="0 0 226 387" fill="none" xmlns="http://www.w3.org/2000/svg">
<path d="M-224.215 374.823C-277.962 346.182 -308.716 82.5765 -213.715 32.323C-98.7155 -28.5103 -31.267 347.778 57.2845 321.323C177.785 285.323 125.285 82.823 125.285 82.823C125.285 82.823 98.2845 116.523 97.2845 116.823C82.2845 121.323 77.8679 120.323 74.7845 101.823C74.4512 99.823 145.785 0.822968 145.785 0.822968C145.785 0.822968 224.785 98.323 224.785 101.823C224.785 119.215 218.285 119.966 201.785 116.823C200.785 116.632 177.785 82.823 177.785 82.823C177.785 82.823 191.785 217.323 184.785 272.823C177.785 328.323 130.727 374.094 74.7845 383.823C13.9071 394.41 -30.6546 364.271 -64.3071 321.029C-92.0038 347.414 -164.191 406.809 -224.215 374.823Z" fill="#D9D9D9"/>
<path d="M-213.715 32.323C-308.716 82.5765 -277.962 346.182 -224.215 374.823C-148.215 415.323 -52.7153 309.323 -52.7153 309.323L-90.7153 278.323C-90.7153 278.323 -126.715 330.41 -176.215 312.323C-202.215 302.823 -206.215 125.823 -172.715 121.323C-139.215 116.823 -97.7155 413.823 74.7845 383.823C130.727 374.094 177.785 328.323 184.785 272.823C191.785 217.323 177.785 82.823 177.785 82.823C177.785 82.823 200.785 116.632 201.785 116.823C218.285 119.966 224.785 119.215 224.785 101.823C224.785 98.323 145.785 0.822968 145.785 0.822968C145.785 0.822968 74.4512 99.823 74.7845 101.823C77.8679 120.323 82.2845 121.323 97.2845 116.823C98.2845 116.523 125.285 82.823 125.285 82.823C125.285 82.823 177.785 285.323 57.2845 321.323C-31.267 347.778 -98.7155 -28.5103 -213.715 32.323Z" stroke="black"/>
</svg>
